<mxfile host="app.diagrams.net" modified="2023-07-29T02:17:02.831Z" agent="Mozilla/5.0 (Windows NT 10.0; Win64; x64) AppleWebKit/537.36 (KHTML, like Gecko) Chrome/115.0.0.0 Safari/537.36 Edg/115.0.1901.183" version="21.6.5" etag="zzScurzomkBREttQD-Fe" type="github">
  <diagram name="Trang-1" id="y3LoE6PZrdZYjHPpwnT-">
    <mxGraphModel>
      <root>
        <mxCell id="0" />
        <mxCell id="1" parent="0" />
      </root>
    </mxGraphModel>
  </diagram>
</mxfile>
